<svg xmlns="http://www.w3.org/2000/svg" xmlns:xlink="http://www.w3.org/1999/xlink" width="80" height="80" viewBox="0 0 80 80">
  <defs>
    <linearGradient id="linear-gradient" x1="0.06" y1="0.611" x2="0.5" y2="1" gradientUnits="objectBoundingBox">
      <stop offset="0" stop-color="#d3071b"/>
      <stop offset="0.947" stop-color="#756a6c"/>
      <stop offset="1" stop-color="#707070"/>
    </linearGradient>
    <linearGradient id="linear-gradient-2" x1="0.128" y1="0.512" x2="0.5" y2="1" gradientUnits="objectBoundingBox">
      <stop offset="0" stop-color="#d3071b"/>
      <stop offset="1" stop-color="#707070"/>
    </linearGradient>
    <linearGradient id="linear-gradient-3" x1="0.5" x2="0.838" y2="1.489" gradientUnits="objectBoundingBox">
      <stop offset="0" stop-color="#222121"/>
      <stop offset="1" stop-color="#6b6a6a"/>
    </linearGradient>
    <linearGradient id="linear-gradient-4" x1="0.5" x2="0.774" y2="1.105" gradientUnits="objectBoundingBox">
      <stop offset="0" stop-color="#222121"/>
      <stop offset="1" stop-color="#d3071b"/>
    </linearGradient>
    <clipPath id="clip-Logo_1">
      <rect width="80" height="80"/>
    </clipPath>
  </defs>
  <g id="Logo_1" data-name="Logo – 1" clip-path="url(#clip-Logo_1)">
    <path id="Subtraction_1" data-name="Subtraction 1" d="M34.5,69A34.509,34.509,0,0,1,21.071,2.711,34.284,34.284,0,0,1,34.5,0,34.871,34.871,0,0,1,40,.436a34.506,34.506,0,0,0,0,68.128A34.87,34.87,0,0,1,34.5,69Z" transform="translate(61.201 82.723) rotate(-160)" fill="url(#linear-gradient)"/>
    <path id="Subtraction_2" data-name="Subtraction 2" d="M33.638,69a32.706,32.706,0,0,1-13.093-2.711A33.492,33.492,0,0,1,9.852,58.9,34.448,34.448,0,0,1,2.643,47.929a35.433,35.433,0,0,1,0-26.858A34.446,34.446,0,0,1,9.852,10.1,33.491,33.491,0,0,1,20.544,2.711,32.708,32.708,0,0,1,33.638,0,33.166,33.166,0,0,1,39,.436C22.617,3.129,10.725,17.454,10.725,34.5S22.617,65.871,39,68.564A33.165,33.165,0,0,1,33.638,69Z" transform="translate(40.247 87.293) rotate(-135)" fill="url(#linear-gradient-2)"/>
    <path id="Subtraction_3" data-name="Subtraction 3" d="M34.5,69A34.509,34.509,0,0,1,21.071,2.711,34.284,34.284,0,0,1,34.5,0,34.871,34.871,0,0,1,40,.436a34.506,34.506,0,0,0,0,68.128A34.87,34.87,0,0,1,34.5,69Z" transform="translate(6.207 73.463) rotate(-90)" fill="url(#linear-gradient-3)"/>
    <path id="Subtraction_5" data-name="Subtraction 5" d="M34.5,69A34.509,34.509,0,0,1,21.071,2.711,34.284,34.284,0,0,1,34.5,0,34.871,34.871,0,0,1,40,.436a34.506,34.506,0,0,0,0,68.128A34.87,34.87,0,0,1,34.5,69Z" transform="translate(-8.83 40.21) rotate(-45)" fill="url(#linear-gradient-4)"/>
    <path id="Subtraction_7" data-name="Subtraction 7" d="M34.5,70a33.861,33.861,0,0,1-13.429-2.75,34.361,34.361,0,0,1-10.966-7.5A35.434,35.434,0,0,1,2.711,21.376,34.915,34.915,0,0,1,10.1,10.251a34.361,34.361,0,0,1,10.966-7.5A33.861,33.861,0,0,1,34.5,0a34.387,34.387,0,0,1,5.481.439,34.5,34.5,0,0,0,3.077,68.476A34.162,34.162,0,0,1,34.5,70Z" transform="matrix(0.94, -0.342, 0.342, 0.94, -4.887, 18.884)" fill="url(#linear-gradient-4)"/>
    <text id="EE" transform="translate(17 9)" fill="#b90415" font-size="34" font-family="MVBoli, MV Boli"><tspan x="0" y="39">E</tspan><tspan y="39" fill="#333">E</tspan></text>
  </g>
</svg>
